STARTFONT 2.1
FONT -nil-2xProTamsyn-medium-r-normal--22-220-72-72-c-120-iso8859-1
SIZE 22 72 72
FONTBOUNDINGBOX 12 22 0 -4
STARTPROPERTIES 16
CAP_HEIGHT 18
POINT_SIZE 220
WEIGHT 10
RESOLUTION_X 72
RESOLUTION_Y 72
X_HEIGHT 10
QUAD_WIDTH 12
FAMILY_NAME "ProTamsyn2x"
WEIGHT_NAME "Medium"
SLANT "R"
CHARSET_REGISTRY "ISO8859"
CHARSET_ENCODING "1"
DEFAULT_CHAR 0
FONT_DESCENT 4
FONT_ASCENT 18
_GBDFED_INFO "Edited with gbdfed 1.6."
ENDPROPERTIES
CHARS 265
STARTCHAR 0
ENCODING 0
SWIDTH 545 0
DWIDTH 12 0
BBX 12 22 0 -4
BITMAP
0000
0000
0000
0000
0000
0000
0000
0000
0000
0000
0000
0000
0000
0000
0000
0000
0000
0000
0000
0000
0000
0000
ENDCHAR
STARTCHAR 1
ENCODING 1
SWIDTH 545 0
DWIDTH 12 0
BBX 12 22 0 -4
BITMAP
0000
0000
0000
0000
0000
0000
0000
0000
0000
0000
0000
0000
0000
0000
0000
0000
0000
0000
0000
0000
0000
0000
ENDCHAR
STARTCHAR 2
ENCODING 2
SWIDTH 545 0
DWIDTH 12 0
BBX 12 22 0 -4
BITMAP
0000
0000
0000
0000
0000
0000
0000
0000
0000
0000
0000
0000
0000
0000
0000
0000
0000
0000
0000
0000
0000
0000
ENDCHAR
STARTCHAR 3
ENCODING 3
SWIDTH 545 0
DWIDTH 12 0
BBX 12 22 0 -4
BITMAP
0000
0000
0000
0000
0000
0000
0000
0000
0000
0000
0000
0000
0000
0000
0000
0000
0000
0000
0000
0000
0000
0000
ENDCHAR
STARTCHAR 4
ENCODING 4
SWIDTH 545 0
DWIDTH 12 0
BBX 12 22 0 -4
BITMAP
0000
0000
0000
0000
0000
0000
0000
0000
0000
0000
0000
0000
0000
0000
0000
0000
0000
0000
0000
0000
0000
0000
ENDCHAR
STARTCHAR 5
ENCODING 5
SWIDTH 545 0
DWIDTH 12 0
BBX 12 22 0 -4
BITMAP
0000
0000
0000
0000
0000
0000
0000
0000
0000
0000
0000
0000
0000
0000
0000
0000
0000
0000
0000
0000
0000
0000
ENDCHAR
STARTCHAR 6
ENCODING 6
SWIDTH 545 0
DWIDTH 12 0
BBX 12 22 0 -4
BITMAP
0000
0000
0000
0000
0000
0000
0000
0000
0000
0000
0000
0000
0000
0000
0000
0000
0000
0000
0000
0000
0000
0000
ENDCHAR
STARTCHAR 7
ENCODING 7
SWIDTH 545 0
DWIDTH 12 0
BBX 12 22 0 -4
BITMAP
0000
0000
0000
0000
0000
0000
0000
0000
0000
0000
0000
0000
0000
0000
0000
0000
0000
0000
0000
0000
0000
0000
ENDCHAR
STARTCHAR 8
ENCODING 8
SWIDTH 545 0
DWIDTH 12 0
BBX 12 22 0 -4
BITMAP
0000
0000
0000
0000
0000
0000
0000
0000
0000
0000
0000
0000
0000
0000
0000
0000
0000
0000
0000
0000
0000
0000
ENDCHAR
STARTCHAR 9
ENCODING 9
SWIDTH 545 0
DWIDTH 12 0
BBX 12 22 0 -4
BITMAP
0000
0000
0000
0000
0000
0000
0000
0000
0000
0000
0000
0000
0000
0000
0000
0000
0000
0000
0000
0000
0000
0000
ENDCHAR
STARTCHAR 10
ENCODING 10
SWIDTH 545 0
DWIDTH 12 0
BBX 12 22 0 -4
BITMAP
0000
0000
0000
0000
0000
0000
0000
0000
0000
0000
0000
0000
0000
0000
0000
0000
0000
0000
0000
0000
0000
0000
ENDCHAR
STARTCHAR 11
ENCODING 11
SWIDTH 545 0
DWIDTH 12 0
BBX 12 22 0 -4
BITMAP
0000
0000
0000
0000
0000
0000
0000
0000
0000
0000
0000
0000
0000
0000
0000
0000
0000
0000
0000
0000
0000
0000
ENDCHAR
STARTCHAR 12
ENCODING 12
SWIDTH 545 0
DWIDTH 12 0
BBX 12 22 0 -4
BITMAP
0000
0000
0000
0000
0000
0000
0000
0000
0000
0000
0000
0000
0000
0000
0000
0000
0000
0000
0000
0000
0000
0000
ENDCHAR
STARTCHAR 13
ENCODING 13
SWIDTH 545 0
DWIDTH 12 0
BBX 12 22 0 -4
BITMAP
0000
0000
0000
0000
0000
0000
0000
0000
0000
0000
0000
0000
0000
0000
0000
0000
0000
0000
0000
0000
0000
0000
ENDCHAR
STARTCHAR 14
ENCODING 14
SWIDTH 545 0
DWIDTH 12 0
BBX 12 22 0 -4
BITMAP
0000
0000
0000
0000
0000
0000
0000
0000
0000
0000
0000
0000
0000
0000
0000
0000
0000
0000
0000
0000
0000
0000
ENDCHAR
STARTCHAR 15
ENCODING 15
SWIDTH 545 0
DWIDTH 12 0
BBX 12 22 0 -4
BITMAP
0000
0000
0000
0000
0000
0000
0000
0000
0000
0000
0000
0000
0000
0000
0000
0000
0000
0000
0000
0000
0000
0000
ENDCHAR
STARTCHAR 16
ENCODING 16
SWIDTH 545 0
DWIDTH 12 0
BBX 12 22 0 -4
BITMAP
0000
0000
0000
0000
0000
0000
0000
0000
0000
0000
0000
0000
0000
0000
0000
0000
0000
0000
0000
0000
0000
0000
ENDCHAR
STARTCHAR 17
ENCODING 17
SWIDTH 545 0
DWIDTH 12 0
BBX 12 22 0 -4
BITMAP
0000
0000
0000
0000
0000
0000
0000
0000
0000
0000
0000
0000
0000
0000
0000
0000
0000
0000
0000
0000
0000
0000
ENDCHAR
STARTCHAR 18
ENCODING 18
SWIDTH 545 0
DWIDTH 12 0
BBX 12 22 0 -4
BITMAP
0000
0000
0000
0000
0000
0000
0000
0000
0000
0000
0000
0000
0000
0000
0000
0000
0000
0000
0000
0000
0000
0000
ENDCHAR
STARTCHAR 19
ENCODING 19
SWIDTH 545 0
DWIDTH 12 0
BBX 12 22 0 -4
BITMAP
0000
0000
0000
0000
0000
0000
0000
0000
0000
0000
0000
0000
0000
0000
0000
0000
0000
0000
0000
0000
0000
0000
ENDCHAR
STARTCHAR 20
ENCODING 20
SWIDTH 545 0
DWIDTH 12 0
BBX 12 22 0 -4
BITMAP
0000
0000
0000
0000
0000
0000
0000
0000
0000
0000
0000
0000
0000
0000
0000
0000
0000
0000
0000
0000
0000
0000
ENDCHAR
STARTCHAR 21
ENCODING 21
SWIDTH 545 0
DWIDTH 12 0
BBX 12 22 0 -4
BITMAP
0000
0000
0000
0000
0000
0000
0000
0000
0000
0000
0000
0000
0000
0000
0000
0000
0000
0000
0000
0000
0000
0000
ENDCHAR
STARTCHAR 22
ENCODING 22
SWIDTH 545 0
DWIDTH 12 0
BBX 12 22 0 -4
BITMAP
0000
0000
0000
0000
0000
0000
0000
0000
0000
0000
0000
0000
0000
0000
0000
0000
0000
0000
0000
0000
0000
0000
ENDCHAR
STARTCHAR 23
ENCODING 23
SWIDTH 545 0
DWIDTH 12 0
BBX 12 22 0 -4
BITMAP
0000
0000
0000
0000
0000
0000
0000
0000
0000
0000
0000
0000
0000
0000
0000
0000
0000
0000
0000
0000
0000
0000
ENDCHAR
STARTCHAR 24
ENCODING 24
SWIDTH 545 0
DWIDTH 12 0
BBX 12 22 0 -4
BITMAP
0000
0000
0000
0000
0000
0000
0000
0000
0000
0000
0000
0000
0000
0000
0000
0000
0000
0000
0000
0000
0000
0000
ENDCHAR
STARTCHAR 25
ENCODING 25
SWIDTH 545 0
DWIDTH 12 0
BBX 12 22 0 -4
BITMAP
0000
0000
0000
0000
0000
0000
0000
0000
0000
0000
0000
0000
0000
0000
0000
0000
0000
0000
0000
0000
0000
0000
ENDCHAR
STARTCHAR 26
ENCODING 26
SWIDTH 545 0
DWIDTH 12 0
BBX 12 22 0 -4
BITMAP
0000
0000
0000
0000
0000
0000
0000
0000
0000
0000
0000
0000
0000
0000
0000
0000
0000
0000
0000
0000
0000
0000
ENDCHAR
STARTCHAR 27
ENCODING 27
SWIDTH 545 0
DWIDTH 12 0
BBX 12 22 0 -4
BITMAP
0000
0000
0000
0000
0000
0000
0000
0000
0000
0000
0000
0000
0000
0000
0000
0000
0000
0000
0000
0000
0000
0000
ENDCHAR
STARTCHAR 28
ENCODING 28
SWIDTH 545 0
DWIDTH 12 0
BBX 12 22 0 -4
BITMAP
0000
0000
0000
0000
0000
0000
0000
0000
0000
0000
0000
0000
0000
0000
0000
0000
0000
0000
0000
0000
0000
0000
ENDCHAR
STARTCHAR 29
ENCODING 29
SWIDTH 545 0
DWIDTH 12 0
BBX 12 22 0 -4
BITMAP
0000
0000
0000
0000
0000
0000
0000
0000
0000
0000
0000
0000
0000
0000
0000
0000
0000
0000
0000
0000
0000
0000
ENDCHAR
STARTCHAR 30
ENCODING 30
SWIDTH 545 0
DWIDTH 12 0
BBX 12 22 0 -4
BITMAP
0000
0000
0000
0000
0000
0000
0000
0000
0000
0000
0000
0000
0000
0000
0000
0000
0000
0000
0000
0000
0000
0000
ENDCHAR
STARTCHAR 31
ENCODING 31
SWIDTH 545 0
DWIDTH 12 0
BBX 12 22 0 -4
BITMAP
0000
0000
0000
0000
0000
0000
0000
0000
0000
0000
0000
0000
0000
0000
0000
0000
0000
0000
0000
0000
0000
0000
ENDCHAR
STARTCHAR 32
ENCODING 32
SWIDTH 545 0
DWIDTH 12 0
BBX 12 22 0 -4
BITMAP
0000
0000
0000
0000
0000
0000
0000
0000
0000
0000
0000
0000
0000
0000
0000
0000
0000
0000
0000
0000
0000
0000
ENDCHAR
STARTCHAR 33
ENCODING 33
SWIDTH 545 0
DWIDTH 12 0
BBX 12 22 0 -4
BITMAP
0000
0000
0000
0000
0C00
0C00
0C00
0C00
0C00
0C00
0C00
0C00
0C00
0C00
0000
0000
0C00
0C00
0000
0000
0000
0000
ENDCHAR
STARTCHAR 34
ENCODING 34
SWIDTH 545 0
DWIDTH 12 0
BBX 12 22 0 -4
BITMAP
0000
0000
3300
3300
3300
3300
3300
3300
0000
0000
0000
0000
0000
0000
0000
0000
0000
0000
0000
0000
0000
0000
ENDCHAR
STARTCHAR 35
ENCODING 35
SWIDTH 545 0
DWIDTH 12 0
BBX 12 22 0 -4
BITMAP
0000
0000
0000
0000
3300
3300
FFC0
FFC0
3300
3300
FFC0
FFC0
3300
3300
0000
0000
0000
0000
0000
0000
0000
0000
ENDCHAR
STARTCHAR 36
ENCODING 36
SWIDTH 545 0
DWIDTH 12 0
BBX 12 22 0 -4
BITMAP
0000
0000
0C00
0C00
3F00
3F00
CCC0
CCC0
CC00
CC00
3F00
3F00
0CC0
0CC0
CCC0
CCC0
3F00
3F00
0C00
0C00
0000
0000
ENDCHAR
STARTCHAR 37
ENCODING 37
SWIDTH 545 0
DWIDTH 12 0
BBX 12 22 0 -4
BITMAP
0000
0000
0000
0000
3FC0
3FC0
CCC0
CCC0
CF00
CF00
3300
3300
3CC0
3CC0
CCC0
CCC0
C300
C300
0000
0000
0000
0000
ENDCHAR
STARTCHAR 38
ENCODING 38
SWIDTH 545 0
DWIDTH 12 0
BBX 12 22 0 -4
BITMAP
0000
0000
0000
0000
3C00
3C00
C300
C300
CC00
CC00
3000
3000
CCC0
CCC0
C300
C300
3CC0
3CC0
0000
0000
0000
0000
ENDCHAR
STARTCHAR 39
ENCODING 39
SWIDTH 545 0
DWIDTH 12 0
BBX 12 22 0 -4
BITMAP
0000
0000
0C00
0C00
0C00
0C00
0C00
0C00
0000
0000
0000
0000
0000
0000
0000
0000
0000
0000
0000
0000
0000
0000
ENDCHAR
STARTCHAR 40
ENCODING 40
SWIDTH 545 0
DWIDTH 12 0
BBX 12 22 0 -4
BITMAP
0000
0000
0300
0300
0C00
0C00
3000
3000
3000
3000
3000
3000
3000
3000
3000
3000
0C00
0C00
0300
0300
0000
0000
ENDCHAR
STARTCHAR 41
ENCODING 41
SWIDTH 545 0
DWIDTH 12 0
BBX 12 22 0 -4
BITMAP
0000
0000
3000
3000
0C00
0C00
0300
0300
0300
0300
0300
0300
0300
0300
0300
0300
0C00
0C00
3000
3000
0000
0000
ENDCHAR
STARTCHAR 42
ENCODING 42
SWIDTH 545 0
DWIDTH 12 0
BBX 12 22 0 -4
BITMAP
0000
0000
0000
0000
0C00
0C00
CCC0
CCC0
3F00
3F00
CCC0
CCC0
0C00
0C00
0000
0000
0000
0000
0000
0000
0000
0000
ENDCHAR
STARTCHAR 43
ENCODING 43
SWIDTH 545 0
DWIDTH 12 0
BBX 12 22 0 -4
BITMAP
0000
0000
0000
0000
0000
0000
0C00
0C00
0C00
0C00
FFC0
FFC0
0C00
0C00
0C00
0C00
0000
0000
0000
0000
0000
0000
ENDCHAR
STARTCHAR 44
ENCODING 44
SWIDTH 545 0
DWIDTH 12 0
BBX 12 22 0 -4
BITMAP
0000
0000
0000
0000
0000
0000
0000
0000
0000
0000
0000
0000
0000
0000
3C00
3C00
3C00
3C00
0C00
0C00
3000
3000
ENDCHAR
STARTCHAR 45
ENCODING 45
SWIDTH 545 0
DWIDTH 12 0
BBX 12 22 0 -4
BITMAP
0000
0000
0000
0000
0000
0000
0000
0000
0000
0000
3F00
3F00
0000
0000
0000
0000
0000
0000
0000
0000
0000
0000
ENDCHAR
STARTCHAR 46
ENCODING 46
SWIDTH 545 0
DWIDTH 12 0
BBX 12 22 0 -4
BITMAP
0000
0000
0000
0000
0000
0000
0000
0000
0000
0000
0000
0000
0000
0000
0F00
0F00
0F00
0F00
0000
0000
0000
0000
ENDCHAR
STARTCHAR 47
ENCODING 47
SWIDTH 545 0
DWIDTH 12 0
BBX 12 22 0 -4
BITMAP
0000
0000
00C0
00C0
00C0
00C0
0300
0300
0300
0300
0C00
0C00
0C00
0C00
3000
3000
3000
3000
C000
C000
C000
C000
ENDCHAR
STARTCHAR 48
ENCODING 48
SWIDTH 545 0
DWIDTH 12 0
BBX 12 22 0 -4
BITMAP
0000
0000
0000
0000
3F00
3F00
C0C0
C0C0
C3C0
C3C0
CCC0
CCC0
F0C0
F0C0
C0C0
C0C0
3F00
3F00
0000
0000
0000
0000
ENDCHAR
STARTCHAR 49
ENCODING 49
SWIDTH 545 0
DWIDTH 12 0
BBX 12 22 0 -4
BITMAP
0000
0000
0000
0000
0C00
0C00
FC00
FC00
0C00
0C00
0C00
0C00
0C00
0C00
0C00
0C00
FFC0
FFC0
0000
0000
0000
0000
ENDCHAR
STARTCHAR 50
ENCODING 50
SWIDTH 545 0
DWIDTH 12 0
BBX 12 22 0 -4
BITMAP
0000
0000
0000
0000
3F00
3F00
C0C0
C0C0
00C0
00C0
0300
0300
0C00
0C00
3000
3000
FFC0
FFC0
0000
0000
0000
0000
ENDCHAR
STARTCHAR 51
ENCODING 51
SWIDTH 545 0
DWIDTH 12 0
BBX 12 22 0 -4
BITMAP
0000
0000
0000
0000
3F00
3F00
C0C0
C0C0
00C0
00C0
0F00
0F00
00C0
00C0
C0C0
C0C0
3F00
3F00
0000
0000
0000
0000
ENDCHAR
STARTCHAR 52
ENCODING 52
SWIDTH 545 0
DWIDTH 12 0
BBX 12 22 0 -4
BITMAP
0000
0000
0000
0000
0300
0300
0F00
0F00
3300
3300
C300
C300
FFC0
FFC0
0300
0300
0FC0
0FC0
0000
0000
0000
0000
ENDCHAR
STARTCHAR 53
ENCODING 53
SWIDTH 545 0
DWIDTH 12 0
BBX 12 22 0 -4
BITMAP
0000
0000
0000
0000
FFC0
FFC0
C000
C000
FF00
FF00
00C0
00C0
00C0
00C0
C0C0
C0C0
3F00
3F00
0000
0000
0000
0000
ENDCHAR
STARTCHAR 54
ENCODING 54
SWIDTH 545 0
DWIDTH 12 0
BBX 12 22 0 -4
BITMAP
0000
0000
0000
0000
3F00
3F00
C000
C000
FF00
FF00
C0C0
C0C0
C0C0
C0C0
C0C0
C0C0
3F00
3F00
0000
0000
0000
0000
ENDCHAR
STARTCHAR 55
ENCODING 55
SWIDTH 545 0
DWIDTH 12 0
BBX 12 22 0 -4
BITMAP
0000
0000
0000
0000
FFC0
FFC0
00C0
00C0
00C0
00C0
0300
0300
0C00
0C00
0C00
0C00
0C00
0C00
0000
0000
0000
0000
ENDCHAR
STARTCHAR 56
ENCODING 56
SWIDTH 545 0
DWIDTH 12 0
BBX 12 22 0 -4
BITMAP
0000
0000
0000
0000
3F00
3F00
C0C0
C0C0
C0C0
C0C0
3F00
3F00
C0C0
C0C0
C0C0
C0C0
3F00
3F00
0000
0000
0000
0000
ENDCHAR
STARTCHAR 57
ENCODING 57
SWIDTH 545 0
DWIDTH 12 0
BBX 12 22 0 -4
BITMAP
0000
0000
0000
0000
3F00
3F00
C0C0
C0C0
C0C0
C0C0
C0C0
C0C0
3FC0
3FC0
00C0
00C0
3F00
3F00
0000
0000
0000
0000
ENDCHAR
STARTCHAR 58
ENCODING 58
SWIDTH 545 0
DWIDTH 12 0
BBX 12 22 0 -4
BITMAP
0000
0000
0000
0000
0000
0000
0000
0000
0F00
0F00
0F00
0F00
0000
0000
0F00
0F00
0F00
0F00
0000
0000
0000
0000
ENDCHAR
STARTCHAR 59
ENCODING 59
SWIDTH 545 0
DWIDTH 12 0
BBX 12 22 0 -4
BITMAP
0000
0000
0000
0000
0000
0000
0000
0000
3C00
3C00
3C00
3C00
0000
0000
3C00
3C00
3C00
3C00
0C00
0C00
3000
3000
ENDCHAR
STARTCHAR 60
ENCODING 60
SWIDTH 545 0
DWIDTH 12 0
BBX 12 22 0 -4
BITMAP
0000
0000
0000
0000
00C0
00C0
0300
0300
0C00
0C00
3000
3000
0C00
0C00
0300
0300
00C0
00C0
0000
0000
0000
0000
ENDCHAR
STARTCHAR 61
ENCODING 61
SWIDTH 545 0
DWIDTH 12 0
BBX 12 22 0 -4
BITMAP
0000
0000
0000
0000
0000
0000
0000
0000
FFC0
FFC0
0000
0000
FFC0
FFC0
0000
0000
0000
0000
0000
0000
0000
0000
ENDCHAR
STARTCHAR 62
ENCODING 62
SWIDTH 545 0
DWIDTH 12 0
BBX 12 22 0 -4
BITMAP
0000
0000
0000
0000
3000
3000
0C00
0C00
0300
0300
00C0
00C0
0300
0300
0C00
0C00
3000
3000
0000
0000
0000
0000
ENDCHAR
STARTCHAR 63
ENCODING 63
SWIDTH 545 0
DWIDTH 12 0
BBX 12 22 0 -4
BITMAP
0000
0000
0000
0000
3F00
3F00
C0C0
C0C0
00C0
00C0
0300
0300
0C00
0C00
0000
0000
0C00
0C00
0000
0000
0000
0000
ENDCHAR
STARTCHAR 64
ENCODING 64
SWIDTH 545 0
DWIDTH 12 0
BBX 12 22 0 -4
BITMAP
0000
0000
0000
0000
3F00
3F00
C0C0
C0C0
CFC0
CFC0
CCC0
CCC0
CFC0
CFC0
C000
C000
3FC0
3FC0
0000
0000
0000
0000
ENDCHAR
STARTCHAR 65
ENCODING 65
SWIDTH 545 0
DWIDTH 12 0
BBX 12 22 0 -4
BITMAP
0000
0000
0000
0000
0C00
0C00
3300
3300
3300
3300
C0C0
C0C0
FFC0
FFC0
C0C0
C0C0
C0C0
C0C0
0000
0000
0000
0000
ENDCHAR
STARTCHAR 66
ENCODING 66
SWIDTH 545 0
DWIDTH 12 0
BBX 12 22 0 -4
BITMAP
0000
0000
0000
0000
FF00
FF00
C0C0
C0C0
C0C0
C0C0
FF00
FF00
C0C0
C0C0
C0C0
C0C0
FF00
FF00
0000
0000
0000
0000
ENDCHAR
STARTCHAR 67
ENCODING 67
SWIDTH 545 0
DWIDTH 12 0
BBX 12 22 0 -4
BITMAP
0000
0000
0000
0000
3F00
3F00
C0C0
C0C0
C000
C000
C000
C000
C000
C000
C0C0
C0C0
3F00
3F00
0000
0000
0000
0000
ENDCHAR
STARTCHAR 68
ENCODING 68
SWIDTH 545 0
DWIDTH 12 0
BBX 12 22 0 -4
BITMAP
0000
0000
0000
0000
FF00
FF00
C0C0
C0C0
C0C0
C0C0
C0C0
C0C0
C0C0
C0C0
C0C0
C0C0
FF00
FF00
0000
0000
0000
0000
ENDCHAR
STARTCHAR 69
ENCODING 69
SWIDTH 545 0
DWIDTH 12 0
BBX 12 22 0 -4
BITMAP
0000
0000
0000
0000
FFC0
FFC0
C000
C000
C000
C000
FF00
FF00
C000
C000
C000
C000
FFC0
FFC0
0000
0000
0000
0000
ENDCHAR
STARTCHAR 70
ENCODING 70
SWIDTH 545 0
DWIDTH 12 0
BBX 12 22 0 -4
BITMAP
0000
0000
0000
0000
FFC0
FFC0
C000
C000
C000
C000
FF00
FF00
C000
C000
C000
C000
C000
C000
0000
0000
0000
0000
ENDCHAR
STARTCHAR 71
ENCODING 71
SWIDTH 545 0
DWIDTH 12 0
BBX 12 22 0 -4
BITMAP
0000
0000
0000
0000
3F00
3F00
C0C0
C0C0
C000
C000
C3C0
C3C0
C0C0
C0C0
C0C0
C0C0
3F00
3F00
0000
0000
0000
0000
ENDCHAR
STARTCHAR 72
ENCODING 72
SWIDTH 545 0
DWIDTH 12 0
BBX 12 22 0 -4
BITMAP
0000
0000
0000
0000
C0C0
C0C0
C0C0
C0C0
C0C0
C0C0
FFC0
FFC0
C0C0
C0C0
C0C0
C0C0
C0C0
C0C0
0000
0000
0000
0000
ENDCHAR
STARTCHAR 73
ENCODING 73
SWIDTH 545 0
DWIDTH 12 0
BBX 12 22 0 -4
BITMAP
0000
0000
0000
0000
FFC0
FFC0
0C00
0C00
0C00
0C00
0C00
0C00
0C00
0C00
0C00
0C00
FFC0
FFC0
0000
0000
0000
0000
ENDCHAR
STARTCHAR 74
ENCODING 74
SWIDTH 545 0
DWIDTH 12 0
BBX 12 22 0 -4
BITMAP
0000
0000
0000
0000
00C0
00C0
00C0
00C0
00C0
00C0
00C0
00C0
C0C0
C0C0
C0C0
C0C0
3F00
3F00
0000
0000
0000
0000
ENDCHAR
STARTCHAR 75
ENCODING 75
SWIDTH 545 0
DWIDTH 12 0
BBX 12 22 0 -4
BITMAP
0000
0000
0000
0000
C0C0
C0C0
C300
C300
CC00
CC00
F000
F000
CC00
CC00
C300
C300
C0C0
C0C0
0000
0000
0000
0000
ENDCHAR
STARTCHAR 76
ENCODING 76
SWIDTH 545 0
DWIDTH 12 0
BBX 12 22 0 -4
BITMAP
0000
0000
0000
0000
C000
C000
C000
C000
C000
C000
C000
C000
C000
C000
C000
C000
FFC0
FFC0
0000
0000
0000
0000
ENDCHAR
STARTCHAR 77
ENCODING 77
SWIDTH 545 0
DWIDTH 12 0
BBX 12 22 0 -4
BITMAP
0000
0000
0000
0000
C0C0
C0C0
F3C0
F3C0
CCC0
CCC0
CCC0
CCC0
C0C0
C0C0
C0C0
C0C0
C0C0
C0C0
0000
0000
0000
0000
ENDCHAR
STARTCHAR 78
ENCODING 78
SWIDTH 545 0
DWIDTH 12 0
BBX 12 22 0 -4
BITMAP
0000
0000
0000
0000
C0C0
C0C0
F0C0
F0C0
CCC0
CCC0
C3C0
C3C0
C0C0
C0C0
C0C0
C0C0
C0C0
C0C0
0000
0000
0000
0000
ENDCHAR
STARTCHAR 79
ENCODING 79
SWIDTH 545 0
DWIDTH 12 0
BBX 12 22 0 -4
BITMAP
0000
0000
0000
0000
3F00
3F00
C0C0
C0C0
C0C0
C0C0
C0C0
C0C0
C0C0
C0C0
C0C0
C0C0
3F00
3F00
0000
0000
0000
0000
ENDCHAR
STARTCHAR 80
ENCODING 80
SWIDTH 545 0
DWIDTH 12 0
BBX 12 22 0 -4
BITMAP
0000
0000
0000
0000
FF00
FF00
C0C0
C0C0
C0C0
C0C0
FF00
FF00
C000
C000
C000
C000
C000
C000
0000
0000
0000
0000
ENDCHAR
STARTCHAR 81
ENCODING 81
SWIDTH 545 0
DWIDTH 12 0
BBX 12 22 0 -4
BITMAP
0000
0000
0000
0000
3F00
3F00
C0C0
C0C0
C0C0
C0C0
C0C0
C0C0
C0C0
C0C0
CCC0
CCC0
3F00
3F00
00C0
00C0
0000
0000
ENDCHAR
STARTCHAR 82
ENCODING 82
SWIDTH 545 0
DWIDTH 12 0
BBX 12 22 0 -4
BITMAP
0000
0000
0000
0000
FF00
FF00
C0C0
C0C0
C0C0
C0C0
FF00
FF00
C0C0
C0C0
C0C0
C0C0
C0C0
C0C0
0000
0000
0000
0000
ENDCHAR
STARTCHAR 83
ENCODING 83
SWIDTH 545 0
DWIDTH 12 0
BBX 12 22 0 -4
BITMAP
0000
0000
0000
0000
3F00
3F00
C0C0
C0C0
C000
C000
3F00
3F00
00C0
00C0
C0C0
C0C0
3F00
3F00
0000
0000
0000
0000
ENDCHAR
STARTCHAR 84
ENCODING 84
SWIDTH 545 0
DWIDTH 12 0
BBX 12 22 0 -4
BITMAP
0000
0000
0000
0000
FFC0
FFC0
0C00
0C00
0C00
0C00
0C00
0C00
0C00
0C00
0C00
0C00
0C00
0C00
0000
0000
0000
0000
ENDCHAR
STARTCHAR 85
ENCODING 85
SWIDTH 545 0
DWIDTH 12 0
BBX 12 22 0 -4
BITMAP
0000
0000
0000
0000
C0C0
C0C0
C0C0
C0C0
C0C0
C0C0
C0C0
C0C0
C0C0
C0C0
C0C0
C0C0
3F00
3F00
0000
0000
0000
0000
ENDCHAR
STARTCHAR 86
ENCODING 86
SWIDTH 545 0
DWIDTH 12 0
BBX 12 22 0 -4
BITMAP
0000
0000
0000
0000
C0C0
C0C0
C0C0
C0C0
C0C0
C0C0
3300
3300
3300
3300
0C00
0C00
0C00
0C00
0000
0000
0000
0000
ENDCHAR
STARTCHAR 87
ENCODING 87
SWIDTH 545 0
DWIDTH 12 0
BBX 12 22 0 -4
BITMAP
0000
0000
0000
0000
C0C0
C0C0
C0C0
C0C0
C0C0
C0C0
CCC0
CCC0
CCC0
CCC0
F3C0
F3C0
C0C0
C0C0
0000
0000
0000
0000
ENDCHAR
STARTCHAR 88
ENCODING 88
SWIDTH 545 0
DWIDTH 12 0
BBX 12 22 0 -4
BITMAP
0000
0000
0000
0000
C0C0
C0C0
C0C0
C0C0
3300
3300
0C00
0C00
3300
3300
C0C0
C0C0
C0C0
C0C0
0000
0000
0000
0000
ENDCHAR
STARTCHAR 89
ENCODING 89
SWIDTH 545 0
DWIDTH 12 0
BBX 12 22 0 -4
BITMAP
0000
0000
0000
0000
C0C0
C0C0
C0C0
C0C0
C0C0
C0C0
3300
3300
0C00
0C00
0C00
0C00
0C00
0C00
0000
0000
0000
0000
ENDCHAR
STARTCHAR 90
ENCODING 90
SWIDTH 545 0
DWIDTH 12 0
BBX 12 22 0 -4
BITMAP
0000
0000
0000
0000
FFC0
FFC0
00C0
00C0
0300
0300
0C00
0C00
3000
3000
C000
C000
FFC0
FFC0
0000
0000
0000
0000
ENDCHAR
STARTCHAR 91
ENCODING 91
SWIDTH 545 0
DWIDTH 12 0
BBX 12 22 0 -4
BITMAP
0000
0000
0F00
0F00
0C00
0C00
0C00
0C00
0C00
0C00
0C00
0C00
0C00
0C00
0C00
0C00
0C00
0C00
0F00
0F00
0000
0000
ENDCHAR
STARTCHAR 92
ENCODING 92
SWIDTH 545 0
DWIDTH 12 0
BBX 12 22 0 -4
BITMAP
0000
0000
3000
3000
3000
3000
0C00
0C00
0C00
0C00
0300
0300
0300
0300
00C0
00C0
00C0
00C0
0030
0030
0030
0030
ENDCHAR
STARTCHAR 93
ENCODING 93
SWIDTH 545 0
DWIDTH 12 0
BBX 12 22 0 -4
BITMAP
0000
0000
3C00
3C00
0C00
0C00
0C00
0C00
0C00
0C00
0C00
0C00
0C00
0C00
0C00
0C00
0C00
0C00
3C00
3C00
0000
0000
ENDCHAR
STARTCHAR 94
ENCODING 94
SWIDTH 545 0
DWIDTH 12 0
BBX 12 22 0 -4
BITMAP
0000
0000
0000
0000
0C00
0C00
3300
3300
C0C0
C0C0
0000
0000
0000
0000
0000
0000
0000
0000
0000
0000
0000
0000
ENDCHAR
STARTCHAR 95
ENCODING 95
SWIDTH 545 0
DWIDTH 12 0
BBX 12 22 0 -4
BITMAP
0000
0000
0000
0000
0000
0000
0000
0000
0000
0000
0000
0000
0000
0000
0000
0000
0000
0000
0000
0000
FFF0
FFF0
ENDCHAR
STARTCHAR 96
ENCODING 96
SWIDTH 545 0
DWIDTH 12 0
BBX 12 22 0 -4
BITMAP
0000
0000
3000
3000
0C00
0C00
0000
0000
0000
0000
0000
0000
0000
0000
0000
0000
0000
0000
0000
0000
0000
0000
ENDCHAR
STARTCHAR 97
ENCODING 97
SWIDTH 545 0
DWIDTH 12 0
BBX 12 22 0 -4
BITMAP
0000
0000
0000
0000
0000
0000
0000
0000
3FC0
3FC0
C0C0
C0C0
C0C0
C0C0
C3C0
C3C0
3CC0
3CC0
0000
0000
0000
0000
ENDCHAR
STARTCHAR 98
ENCODING 98
SWIDTH 545 0
DWIDTH 12 0
BBX 12 22 0 -4
BITMAP
0000
0000
0000
0000
C000
C000
C000
C000
FF00
FF00
C0C0
C0C0
C0C0
C0C0
C0C0
C0C0
FF00
FF00
0000
0000
0000
0000
ENDCHAR
STARTCHAR 99
ENCODING 99
SWIDTH 545 0
DWIDTH 12 0
BBX 12 22 0 -4
BITMAP
0000
0000
0000
0000
0000
0000
0000
0000
3F00
3F00
C0C0
C0C0
C000
C000
C000
C000
3FC0
3FC0
0000
0000
0000
0000
ENDCHAR
STARTCHAR 100
ENCODING 100
SWIDTH 545 0
DWIDTH 12 0
BBX 12 22 0 -4
BITMAP
0000
0000
0000
0000
00C0
00C0
00C0
00C0
3FC0
3FC0
C0C0
C0C0
C0C0
C0C0
C0C0
C0C0
3FC0
3FC0
0000
0000
0000
0000
ENDCHAR
STARTCHAR 101
ENCODING 101
SWIDTH 545 0
DWIDTH 12 0
BBX 12 22 0 -4
BITMAP
0000
0000
0000
0000
0000
0000
0000
0000
3F00
3F00
C0C0
C0C0
FFC0
FFC0
C000
C000
3FC0
3FC0
0000
0000
0000
0000
ENDCHAR
STARTCHAR 102
ENCODING 102
SWIDTH 545 0
DWIDTH 12 0
BBX 12 22 0 -4
BITMAP
0000
0000
0000
0000
03C0
03C0
0C00
0C00
3F00
3F00
0C00
0C00
0C00
0C00
0C00
0C00
0C00
0C00
0000
0000
0000
0000
ENDCHAR
STARTCHAR 103
ENCODING 103
SWIDTH 545 0
DWIDTH 12 0
BBX 12 22 0 -4
BITMAP
0000
0000
0000
0000
0000
0000
0000
0000
3FC0
3FC0
C0C0
C0C0
C0C0
C0C0
C0C0
C0C0
3FC0
3FC0
00C0
00C0
3F00
3F00
ENDCHAR
STARTCHAR 104
ENCODING 104
SWIDTH 545 0
DWIDTH 12 0
BBX 12 22 0 -4
BITMAP
0000
0000
0000
0000
C000
C000
C000
C000
FF00
FF00
C0C0
C0C0
C0C0
C0C0
C0C0
C0C0
C0C0
C0C0
0000
0000
0000
0000
ENDCHAR
STARTCHAR 105
ENCODING 105
SWIDTH 545 0
DWIDTH 12 0
BBX 12 22 0 -4
BITMAP
0000
0000
0000
0000
0C00
0C00
0000
0000
3C00
3C00
0C00
0C00
0C00
0C00
0C00
0C00
3F00
3F00
0000
0000
0000
0000
ENDCHAR
STARTCHAR 106
ENCODING 106
SWIDTH 545 0
DWIDTH 12 0
BBX 12 22 0 -4
BITMAP
0000
0000
0000
0000
0C00
0C00
0000
0000
3C00
3C00
0C00
0C00
0C00
0C00
0C00
0C00
0C00
0C00
0C00
0C00
F000
F000
ENDCHAR
STARTCHAR 107
ENCODING 107
SWIDTH 545 0
DWIDTH 12 0
BBX 12 22 0 -4
BITMAP
0000
0000
0000
0000
C000
C000
C000
C000
C300
C300
CC00
CC00
FC00
FC00
C300
C300
C0C0
C0C0
0000
0000
0000
0000
ENDCHAR
STARTCHAR 108
ENCODING 108
SWIDTH 545 0
DWIDTH 12 0
BBX 12 22 0 -4
BITMAP
0000
0000
0000
0000
3C00
3C00
0C00
0C00
0C00
0C00
0C00
0C00
0C00
0C00
0C00
0C00
3F00
3F00
0000
0000
0000
0000
ENDCHAR
STARTCHAR 109
ENCODING 109
SWIDTH 545 0
DWIDTH 12 0
BBX 12 22 0 -4
BITMAP
0000
0000
0000
0000
0000
0000
0000
0000
FF00
FF00
CCC0
CCC0
CCC0
CCC0
CCC0
CCC0
CCC0
CCC0
0000
0000
0000
0000
ENDCHAR
STARTCHAR 110
ENCODING 110
SWIDTH 545 0
DWIDTH 12 0
BBX 12 22 0 -4
BITMAP
0000
0000
0000
0000
0000
0000
0000
0000
CF00
CF00
F0C0
F0C0
C0C0
C0C0
C0C0
C0C0
C0C0
C0C0
0000
0000
0000
0000
ENDCHAR
STARTCHAR 111
ENCODING 111
SWIDTH 545 0
DWIDTH 12 0
BBX 12 22 0 -4
BITMAP
0000
0000
0000
0000
0000
0000
0000
0000
3F00
3F00
C0C0
C0C0
C0C0
C0C0
C0C0
C0C0
3F00
3F00
0000
0000
0000
0000
ENDCHAR
STARTCHAR 112
ENCODING 112
SWIDTH 545 0
DWIDTH 12 0
BBX 12 22 0 -4
BITMAP
0000
0000
0000
0000
0000
0000
0000
0000
FF00
FF00
C0C0
C0C0
C0C0
C0C0
C0C0
C0C0
FF00
FF00
C000
C000
C000
C000
ENDCHAR
STARTCHAR 113
ENCODING 113
SWIDTH 545 0
DWIDTH 12 0
BBX 12 22 0 -4
BITMAP
0000
0000
0000
0000
0000
0000
0000
0000
3FC0
3FC0
C0C0
C0C0
C0C0
C0C0
C0C0
C0C0
3FC0
3FC0
00C0
00C0
00C0
00C0
ENDCHAR
STARTCHAR 114
ENCODING 114
SWIDTH 545 0
DWIDTH 12 0
BBX 12 22 0 -4
BITMAP
0000
0000
0000
0000
0000
0000
0000
0000
CF00
CF00
F0C0
F0C0
C000
C000
C000
C000
C000
C000
0000
0000
0000
0000
ENDCHAR
STARTCHAR 115
ENCODING 115
SWIDTH 545 0
DWIDTH 12 0
BBX 12 22 0 -4
BITMAP
0000
0000
0000
0000
0000
0000
0000
0000
3FC0
3FC0
C000
C000
3F00
3F00
00C0
00C0
FF00
FF00
0000
0000
0000
0000
ENDCHAR
STARTCHAR 116
ENCODING 116
SWIDTH 545 0
DWIDTH 12 0
BBX 12 22 0 -4
BITMAP
0000
0000
0000
0000
0C00
0C00
0C00
0C00
3F00
3F00
0C00
0C00
0C00
0C00
0C00
0C00
03C0
03C0
0000
0000
0000
0000
ENDCHAR
STARTCHAR 117
ENCODING 117
SWIDTH 545 0
DWIDTH 12 0
BBX 12 22 0 -4
BITMAP
0000
0000
0000
0000
0000
0000
0000
0000
C0C0
C0C0
C0C0
C0C0
C0C0
C0C0
C3C0
C3C0
3CC0
3CC0
0000
0000
0000
0000
ENDCHAR
STARTCHAR 118
ENCODING 118
SWIDTH 545 0
DWIDTH 12 0
BBX 12 22 0 -4
BITMAP
0000
0000
0000
0000
0000
0000
0000
0000
C0C0
C0C0
C0C0
C0C0
3300
3300
3300
3300
0C00
0C00
0000
0000
0000
0000
ENDCHAR
STARTCHAR 119
ENCODING 119
SWIDTH 545 0
DWIDTH 12 0
BBX 12 22 0 -4
BITMAP
0000
0000
0000
0000
0000
0000
0000
0000
CCC0
CCC0
CCC0
CCC0
CCC0
CCC0
CCC0
CCC0
3300
3300
0000
0000
0000
0000
ENDCHAR
STARTCHAR 120
ENCODING 120
SWIDTH 545 0
DWIDTH 12 0
BBX 12 22 0 -4
BITMAP
0000
0000
0000
0000
0000
0000
0000
0000
C0C0
C0C0
3300
3300
0C00
0C00
3300
3300
C0C0
C0C0
0000
0000
0000
0000
ENDCHAR
STARTCHAR 121
ENCODING 121
SWIDTH 545 0
DWIDTH 12 0
BBX 12 22 0 -4
BITMAP
0000
0000
0000
0000
0000
0000
0000
0000
C0C0
C0C0
C0C0
C0C0
C0C0
C0C0
C0C0
C0C0
3FC0
3FC0
00C0
00C0
3F00
3F00
ENDCHAR
STARTCHAR 122
ENCODING 122
SWIDTH 545 0
DWIDTH 12 0
BBX 12 22 0 -4
BITMAP
0000
0000
0000
0000
0000
0000
0000
0000
FFC0
FFC0
0300
0300
0C00
0C00
3000
3000
FFC0
FFC0
0000
0000
0000
0000
ENDCHAR
STARTCHAR 123
ENCODING 123
SWIDTH 545 0
DWIDTH 12 0
BBX 12 22 0 -4
BITMAP
0300
0300
0C00
0C00
0C00
0C00
0C00
0C00
0C00
0C00
3000
3000
0C00
0C00
0C00
0C00
0C00
0C00
0C00
0C00
0300
0300
ENDCHAR
STARTCHAR 124
ENCODING 124
SWIDTH 545 0
DWIDTH 12 0
BBX 12 22 0 -4
BITMAP
0000
0000
0C00
0C00
0C00
0C00
0C00
0C00
0C00
0C00
0C00
0C00
0C00
0C00
0C00
0C00
0C00
0C00
0C00
0C00
0000
0000
ENDCHAR
STARTCHAR 125
ENCODING 125
SWIDTH 545 0
DWIDTH 12 0
BBX 12 22 0 -4
BITMAP
3000
3000
0C00
0C00
0C00
0C00
0C00
0C00
0C00
0C00
0300
0300
0C00
0C00
0C00
0C00
0C00
0C00
0C00
0C00
3000
3000
ENDCHAR
STARTCHAR 126
ENCODING 126
SWIDTH 545 0
DWIDTH 12 0
BBX 12 22 0 -4
BITMAP
0000
0000
0000
0000
0000
0000
0000
0000
3CC0
3CC0
CF00
CF00
0000
0000
0000
0000
0000
0000
0000
0000
0000
0000
ENDCHAR
STARTCHAR 127
ENCODING 127
SWIDTH 545 0
DWIDTH 12 0
BBX 12 22 0 -4
BITMAP
0000
0000
0000
0000
0000
0000
0000
0000
0000
0000
0000
0000
0000
0000
0000
0000
0000
0000
0000
0000
0000
0000
ENDCHAR
STARTCHAR 128
ENCODING 128
SWIDTH 545 0
DWIDTH 12 0
BBX 12 22 0 -4
BITMAP
0000
0000
0000
0000
0000
0000
0000
0000
0000
0000
0000
0000
0000
0000
0000
0000
0000
0000
0000
0000
0000
0000
ENDCHAR
STARTCHAR 129
ENCODING 129
SWIDTH 545 0
DWIDTH 12 0
BBX 12 22 0 -4
BITMAP
0000
0000
0000
0000
0000
0000
0000
0000
0000
0000
0000
0000
0000
0000
0000
0000
0000
0000
0000
0000
0000
0000
ENDCHAR
STARTCHAR 130
ENCODING 130
SWIDTH 545 0
DWIDTH 12 0
BBX 12 22 0 -4
BITMAP
0000
0000
0000
0000
0000
0000
0000
0000
0000
0000
0000
0000
0000
0000
3000
3000
3000
3000
C000
C000
0000
0000
ENDCHAR
STARTCHAR 131
ENCODING 131
SWIDTH 545 0
DWIDTH 12 0
BBX 12 22 0 -4
BITMAP
03C0
03C0
0C00
0C00
0C00
0C00
0C00
0C00
3F00
3F00
0C00
0C00
0C00
0C00
0C00
0C00
0C00
0C00
0C00
0C00
F000
F000
ENDCHAR
STARTCHAR 132
ENCODING 132
SWIDTH 545 0
DWIDTH 12 0
BBX 12 22 0 -4
BITMAP
0000
0000
0000
0000
0000
0000
0000
0000
0000
0000
0000
0000
0000
0000
3300
3300
3300
3300
CC00
CC00
0000
0000
ENDCHAR
STARTCHAR 133
ENCODING 133
SWIDTH 545 0
DWIDTH 12 0
BBX 12 22 0 -4
BITMAP
0000
0000
0000
0000
0000
0000
0000
0000
0000
0000
0000
0000
0000
0000
0000
0000
CCC0
CCC0
0000
0000
0000
0000
ENDCHAR
STARTCHAR 134
ENCODING 134
SWIDTH 545 0
DWIDTH 12 0
BBX 12 22 0 -4
BITMAP
0000
0000
0000
0000
0C00
0C00
3F00
3F00
0C00
0C00
0C00
0C00
0C00
0C00
0000
0000
0000
0000
0000
0000
0000
0000
ENDCHAR
STARTCHAR 135
ENCODING 135
SWIDTH 545 0
DWIDTH 12 0
BBX 12 22 0 -4
BITMAP
0000
0000
0000
0000
0C00
0C00
3F00
3F00
0C00
0C00
3F00
3F00
0C00
0C00
0000
0000
0000
0000
0000
0000
0000
0000
ENDCHAR
STARTCHAR 136
ENCODING 136
SWIDTH 545 0
DWIDTH 12 0
BBX 12 22 0 -4
BITMAP
0000
0000
0C00
0C00
3300
3300
0000
0000
0000
0000
0000
0000
0000
0000
0000
0000
0000
0000
0000
0000
0000
0000
ENDCHAR
STARTCHAR 137
ENCODING 137
SWIDTH 545 0
DWIDTH 12 0
BBX 12 22 0 -4
BITMAP
0000
0000
3FF0
3FF0
CCC0
CCC0
CF00
CF00
3C00
3C00
3CC0
3CC0
F330
F330
3330
3330
0CC0
0CC0
0000
0000
0000
0000
ENDCHAR
STARTCHAR 138
ENCODING 138
SWIDTH 545 0
DWIDTH 12 0
BBX 12 22 0 -4
BITMAP
3300
3300
0C00
0C00
3F00
3F00
C0C0
C0C0
C000
C000
3F00
3F00
00C0
00C0
C0C0
C0C0
3F00
3F00
0000
0000
0000
0000
ENDCHAR
STARTCHAR 139
ENCODING 139
SWIDTH 545 0
DWIDTH 12 0
BBX 12 22 0 -4
BITMAP
0000
0000
0000
0000
0000
0000
0000
0000
0000
0000
3000
3000
C000
C000
C000
C000
3000
3000
0000
0000
0000
0000
ENDCHAR
STARTCHAR 140
ENCODING 140
SWIDTH 545 0
DWIDTH 12 0
BBX 12 22 0 -4
BITMAP
0000
0000
0000
0000
3FC0
3FC0
CC00
CC00
CC00
CC00
CF00
CF00
CC00
CC00
CC00
CC00
3FC0
3FC0
0000
0000
0000
0000
ENDCHAR
STARTCHAR 141
ENCODING 141
SWIDTH 545 0
DWIDTH 12 0
BBX 12 22 0 -4
BITMAP
0000
0000
0000
0000
0000
0000
0000
0000
0000
0000
0000
0000
0000
0000
0000
0000
0000
0000
0000
0000
0000
0000
ENDCHAR
STARTCHAR 142
ENCODING 142
SWIDTH 545 0
DWIDTH 12 0
BBX 12 22 0 -4
BITMAP
0000
0000
0000
0000
0000
0000
0000
0000
0000
0000
0000
0000
0000
0000
0000
0000
0000
0000
0000
0000
0000
0000
ENDCHAR
STARTCHAR 143
ENCODING 143
SWIDTH 545 0
DWIDTH 12 0
BBX 12 22 0 -4
BITMAP
0000
0000
0000
0000
0000
0000
0000
0000
0000
0000
0000
0000
0000
0000
0000
0000
0000
0000
0000
0000
0000
0000
ENDCHAR
STARTCHAR 144
ENCODING 144
SWIDTH 545 0
DWIDTH 12 0
BBX 12 22 0 -4
BITMAP
0000
0000
0000
0000
0000
0000
0000
0000
0000
0000
0000
0000
0000
0000
0000
0000
0000
0000
0000
0000
0000
0000
ENDCHAR
STARTCHAR 145
ENCODING 145
SWIDTH 545 0
DWIDTH 12 0
BBX 12 22 0 -4
BITMAP
0000
0000
0000
0000
0300
0300
0C00
0C00
0C00
0C00
0000
0000
0000
0000
0000
0000
0000
0000
0000
0000
0000
0000
ENDCHAR
STARTCHAR 146
ENCODING 146
SWIDTH 545 0
DWIDTH 12 0
BBX 12 22 0 -4
BITMAP
0000
0000
0000
0000
0300
0300
0300
0300
0C00
0C00
0000
0000
0000
0000
0000
0000
0000
0000
0000
0000
0000
0000
ENDCHAR
STARTCHAR 147
ENCODING 147
SWIDTH 545 0
DWIDTH 12 0
BBX 12 22 0 -4
BITMAP
0000
0000
0000
0000
0CC0
0CC0
3300
3300
3300
3300
0000
0000
0000
0000
0000
0000
0000
0000
0000
0000
0000
0000
ENDCHAR
STARTCHAR 148
ENCODING 148
SWIDTH 545 0
DWIDTH 12 0
BBX 12 22 0 -4
BITMAP
0000
0000
0000
0000
0CC0
0CC0
0CC0
0CC0
3300
3300
0000
0000
0000
0000
0000
0000
0000
0000
0000
0000
0000
0000
ENDCHAR
STARTCHAR 149
ENCODING 149
SWIDTH 545 0
DWIDTH 12 0
BBX 12 22 0 -4
BITMAP
0000
0000
0000
0000
0000
0000
3F00
3F00
FFC0
FFC0
FFC0
FFC0
FFC0
FFC0
3F00
3F00
0000
0000
0000
0000
0000
0000
ENDCHAR
STARTCHAR 150
ENCODING 150
SWIDTH 545 0
DWIDTH 12 0
BBX 12 22 0 -4
BITMAP
0000
0000
0000
0000
0000
0000
0000
0000
0000
0000
3F00
3F00
0000
0000
0000
0000
0000
0000
0000
0000
0000
0000
ENDCHAR
STARTCHAR 151
ENCODING 151
SWIDTH 545 0
DWIDTH 12 0
BBX 12 22 0 -4
BITMAP
0000
0000
0000
0000
0000
0000
0000
0000
0000
0000
FFF0
FFF0
0000
0000
0000
0000
0000
0000
0000
0000
0000
0000
ENDCHAR
STARTCHAR 152
ENCODING 152
SWIDTH 545 0
DWIDTH 12 0
BBX 12 22 0 -4
BITMAP
0000
0000
3CC0
3CC0
CF00
CF00
0000
0000
0000
0000
0000
0000
0000
0000
0000
0000
0000
0000
0000
0000
0000
0000
ENDCHAR
STARTCHAR 153
ENCODING 153
SWIDTH 545 0
DWIDTH 12 0
BBX 12 22 0 -4
BITMAP
0000
0000
0000
0000
FF30
FF30
33F0
33F0
33F0
33F0
0000
0000
0000
0000
0000
0000
0000
0000
0000
0000
0000
0000
ENDCHAR
STARTCHAR 154
ENCODING 154
SWIDTH 545 0
DWIDTH 12 0
BBX 12 22 0 -4
BITMAP
0000
0000
3300
3300
0C00
0C00
0000
0000
3FC0
3FC0
C000
C000
3F00
3F00
00C0
00C0
FF00
FF00
0000
0000
0000
0000
ENDCHAR
STARTCHAR 155
ENCODING 155
SWIDTH 545 0
DWIDTH 12 0
BBX 12 22 0 -4
BITMAP
0000
0000
0000
0000
0000
0000
0000
0000
0000
0000
C000
C000
3000
3000
3000
3000
C000
C000
0000
0000
0000
0000
ENDCHAR
STARTCHAR 156
ENCODING 156
SWIDTH 545 0
DWIDTH 12 0
BBX 12 22 0 -4
BITMAP
0000
0000
0000
0000
0000
0000
0000
0000
3300
3300
CCC0
CCC0
CFC0
CFC0
CC00
CC00
33C0
33C0
0000
0000
0000
0000
ENDCHAR
STARTCHAR 157
ENCODING 157
SWIDTH 545 0
DWIDTH 12 0
BBX 12 22 0 -4
BITMAP
0000
0000
0000
0000
0000
0000
0000
0000
0000
0000
0000
0000
0000
0000
0000
0000
0000
0000
0000
0000
0000
0000
ENDCHAR
STARTCHAR 158
ENCODING 158
SWIDTH 545 0
DWIDTH 12 0
BBX 12 22 0 -4
BITMAP
0000
0000
0000
0000
0000
0000
0000
0000
0000
0000
0000
0000
0000
0000
0000
0000
0000
0000
0000
0000
0000
0000
ENDCHAR
STARTCHAR 159
ENCODING 159
SWIDTH 545 0
DWIDTH 12 0
BBX 12 22 0 -4
BITMAP
3300
3300
0000
0000
C0C0
C0C0
C0C0
C0C0
C0C0
C0C0
3300
3300
0C00
0C00
0C00
0C00
0C00
0C00
0000
0000
0000
0000
ENDCHAR
STARTCHAR 160
ENCODING 160
SWIDTH 545 0
DWIDTH 12 0
BBX 12 22 0 -4
BITMAP
0000
0000
0000
0000
0000
0000
0000
0000
0000
0000
0000
0000
0000
0000
0000
0000
0000
0000
0000
0000
0000
0000
ENDCHAR
STARTCHAR 161
ENCODING 161
SWIDTH 545 0
DWIDTH 12 0
BBX 12 22 0 -4
BITMAP
0000
0000
0000
0000
0300
0300
0000
0000
0300
0300
0300
0300
0300
0300
0300
0300
0300
0300
0000
0000
0000
0000
ENDCHAR
STARTCHAR 162
ENCODING 162
SWIDTH 545 0
DWIDTH 12 0
BBX 12 22 0 -4
BITMAP
0000
0000
0000
0000
0000
0000
0C00
0C00
3F00
3F00
CCC0
CCC0
CC00
CC00
CC00
CC00
3FC0
3FC0
0C00
0C00
0000
0000
ENDCHAR
STARTCHAR 163
ENCODING 163
SWIDTH 545 0
DWIDTH 12 0
BBX 12 22 0 -4
BITMAP
0000
0000
3C00
3C00
C300
C300
C000
C000
FC00
FC00
C000
C000
C000
C000
C0C0
C0C0
FF00
FF00
0000
0000
0000
0000
ENDCHAR
STARTCHAR 164
ENCODING 164
SWIDTH 545 0
DWIDTH 12 0
BBX 12 22 0 -4
BITMAP
0000
0000
0000
0000
0000
0000
0000
0000
C0C0
C0C0
3F00
3F00
3300
3300
3F00
3F00
C0C0
C0C0
0000
0000
0000
0000
ENDCHAR
STARTCHAR 165
ENCODING 165
SWIDTH 545 0
DWIDTH 12 0
BBX 12 22 0 -4
BITMAP
0000
0000
0000
0000
C0C0
C0C0
3300
3300
FFC0
FFC0
0C00
0C00
FFC0
FFC0
0C00
0C00
0C00
0C00
0000
0000
0000
0000
ENDCHAR
STARTCHAR 166
ENCODING 166
SWIDTH 545 0
DWIDTH 12 0
BBX 12 22 0 -4
BITMAP
0000
0000
0C00
0C00
0C00
0C00
0C00
0C00
0C00
0C00
0000
0000
0C00
0C00
0C00
0C00
0C00
0C00
0C00
0C00
0000
0000
ENDCHAR
STARTCHAR 167
ENCODING 167
SWIDTH 545 0
DWIDTH 12 0
BBX 12 22 0 -4
BITMAP
3F00
3F00
C0C0
C0C0
30C0
30C0
CC00
CC00
C300
C300
30C0
30C0
0CC0
0CC0
C300
C300
C0C0
C0C0
3F00
3F00
0000
0000
ENDCHAR
STARTCHAR 168
ENCODING 168
SWIDTH 545 0
DWIDTH 12 0
BBX 12 22 0 -4
BITMAP
0000
0000
0000
0000
3300
3300
0000
0000
0000
0000
0000
0000
0000
0000
0000
0000
0000
0000
0000
0000
0000
0000
ENDCHAR
STARTCHAR 169
ENCODING 169
SWIDTH 545 0
DWIDTH 12 0
BBX 12 22 0 -4
BITMAP
0000
0000
0000
0000
FC00
FC00
0300
0300
3CC0
3CC0
C0C0
C0C0
3CC0
3CC0
0300
0300
FC00
FC00
0000
0000
0000
0000
ENDCHAR
STARTCHAR 170
ENCODING 170
SWIDTH 545 0
DWIDTH 12 0
BBX 12 22 0 -4
BITMAP
0FC0
0FC0
30C0
30C0
30C0
30C0
0FC0
0FC0
0000
0000
3FC0
3FC0
0000
0000
0000
0000
0000
0000
0000
0000
0000
0000
ENDCHAR
STARTCHAR 171
ENCODING 171
SWIDTH 545 0
DWIDTH 12 0
BBX 12 22 0 -4
BITMAP
0000
0000
0000
0000
0000
0000
0000
0000
0000
0000
30C0
30C0
C300
C300
C300
C300
30C0
30C0
0000
0000
0000
0000
ENDCHAR
STARTCHAR 172
ENCODING 172
SWIDTH 545 0
DWIDTH 12 0
BBX 12 22 0 -4
BITMAP
0000
0000
0000
0000
0000
0000
0000
0000
0000
0000
FFC0
FFC0
00C0
00C0
00C0
00C0
0000
0000
0000
0000
0000
0000
ENDCHAR
STARTCHAR 173
ENCODING 173
SWIDTH 545 0
DWIDTH 12 0
BBX 12 22 0 -4
BITMAP
0000
0000
0000
0000
0000
0000
0000
0000
0000
0000
FFC0
FFC0
0000
0000
0000
0000
0000
0000
0000
0000
0000
0000
ENDCHAR
STARTCHAR 174
ENCODING 174
SWIDTH 545 0
DWIDTH 12 0
BBX 12 22 0 -4
BITMAP
0000
0000
0000
0000
FC00
FC00
0300
0300
F0C0
F0C0
CCC0
CCC0
F0C0
F0C0
CF00
CF00
0000
0000
0000
0000
0000
0000
ENDCHAR
STARTCHAR 175
ENCODING 175
SWIDTH 545 0
DWIDTH 12 0
BBX 12 22 0 -4
BITMAP
0000
0000
0000
0000
3F00
3F00
0000
0000
0000
0000
0000
0000
0000
0000
0000
0000
0000
0000
0000
0000
0000
0000
ENDCHAR
STARTCHAR 176
ENCODING 176
SWIDTH 545 0
DWIDTH 12 0
BBX 12 22 0 -4
BITMAP
0000
0000
0F00
0F00
30C0
30C0
30C0
30C0
0F00
0F00
0000
0000
0000
0000
0000
0000
0000
0000
0000
0000
0000
0000
ENDCHAR
STARTCHAR 177
ENCODING 177
SWIDTH 545 0
DWIDTH 12 0
BBX 12 22 0 -4
BITMAP
0000
0000
0000
0000
0000
0000
0C00
0C00
0C00
0C00
FFC0
FFC0
0C00
0C00
0C00
0C00
FFC0
FFC0
0000
0000
0000
0000
ENDCHAR
STARTCHAR 178
ENCODING 178
SWIDTH 545 0
DWIDTH 12 0
BBX 12 22 0 -4
BITMAP
3C00
3C00
0300
0300
0C00
0C00
3F00
3F00
0000
0000
0000
0000
0000
0000
0000
0000
0000
0000
0000
0000
0000
0000
ENDCHAR
STARTCHAR 179
ENCODING 179
SWIDTH 545 0
DWIDTH 12 0
BBX 12 22 0 -4
BITMAP
3C00
3C00
0300
0300
0F00
0F00
0300
0300
3C00
3C00
0000
0000
0000
0000
0000
0000
0000
0000
0000
0000
0000
0000
ENDCHAR
STARTCHAR 180
ENCODING 180
SWIDTH 545 0
DWIDTH 12 0
BBX 12 22 0 -4
BITMAP
0000
0000
03C0
03C0
0F00
0F00
0000
0000
0000
0000
0000
0000
0000
0000
0000
0000
0000
0000
0000
0000
0000
0000
ENDCHAR
STARTCHAR 181
ENCODING 181
SWIDTH 545 0
DWIDTH 12 0
BBX 12 22 0 -4
BITMAP
0000
0000
0000
0000
0000
0000
0000
0000
C300
C300
C300
C300
C300
C300
C300
C300
FCC0
FCC0
C000
C000
C000
C000
ENDCHAR
STARTCHAR 182
ENCODING 182
SWIDTH 545 0
DWIDTH 12 0
BBX 12 22 0 -4
BITMAP
0000
0000
3FC0
3FC0
CCC0
CCC0
CCC0
CCC0
CCC0
CCC0
3FC0
3FC0
0CC0
0CC0
0CC0
0CC0
0CC0
0CC0
0000
0000
0000
0000
ENDCHAR
STARTCHAR 183
ENCODING 183
SWIDTH 545 0
DWIDTH 12 0
BBX 12 22 0 -4
BITMAP
0000
0000
0000
0000
0000
0000
0000
0000
0000
0000
0F00
0F00
0F00
0F00
0000
0000
0000
0000
0000
0000
0000
0000
ENDCHAR
STARTCHAR 184
ENCODING 184
SWIDTH 545 0
DWIDTH 12 0
BBX 12 22 0 -4
BITMAP
0000
0000
0000
0000
0000
0000
0000
0000
0000
0000
0000
0000
0000
0000
0000
0000
3F00
3F00
0F00
0F00
3C00
3C00
ENDCHAR
STARTCHAR 185
ENCODING 185
SWIDTH 545 0
DWIDTH 12 0
BBX 12 22 0 -4
BITMAP
3C00
3C00
0C00
0C00
0C00
0C00
3F00
3F00
0000
0000
0000
0000
0000
0000
0000
0000
0000
0000
0000
0000
0000
0000
ENDCHAR
STARTCHAR 186
ENCODING 186
SWIDTH 545 0
DWIDTH 12 0
BBX 12 22 0 -4
BITMAP
0F00
0F00
30C0
30C0
30C0
30C0
0F00
0F00
0000
0000
3FC0
3FC0
0000
0000
0000
0000
0000
0000
0000
0000
0000
0000
ENDCHAR
STARTCHAR 187
ENCODING 187
SWIDTH 545 0
DWIDTH 12 0
BBX 12 22 0 -4
BITMAP
0000
0000
0000
0000
0000
0000
0000
0000
0000
0000
C300
C300
30C0
30C0
30C0
30C0
C300
C300
0000
0000
0000
0000
ENDCHAR
STARTCHAR 188
ENCODING 188
SWIDTH 545 0
DWIDTH 12 0
BBX 12 22 0 -4
BITMAP
F000
F000
3000
3000
3030
3030
FCC0
FCC0
0300
0300
0CC0
0CC0
33C0
33C0
CFC0
CFC0
00C0
00C0
0000
0000
0000
0000
ENDCHAR
STARTCHAR 189
ENCODING 189
SWIDTH 545 0
DWIDTH 12 0
BBX 12 22 0 -4
BITMAP
F000
F000
3000
3000
3030
3030
FCC0
FCC0
0300
0300
0FC0
0FC0
3030
3030
C0C0
C0C0
03F0
03F0
0000
0000
0000
0000
ENDCHAR
STARTCHAR 190
ENCODING 190
SWIDTH 545 0
DWIDTH 12 0
BBX 12 22 0 -4
BITMAP
F000
F000
0C00
0C00
3C30
3C30
0CC0
0CC0
F300
F300
0CC0
0CC0
33C0
33C0
CFC0
CFC0
00C0
00C0
0000
0000
0000
0000
ENDCHAR
STARTCHAR 191
ENCODING 191
SWIDTH 545 0
DWIDTH 12 0
BBX 12 22 0 -4
BITMAP
0000
0000
0000
0000
0C00
0C00
0000
0000
0C00
0C00
3000
3000
C000
C000
C0C0
C0C0
3F00
3F00
0000
0000
0000
0000
ENDCHAR
STARTCHAR 192
ENCODING 192
SWIDTH 545 0
DWIDTH 12 0
BBX 12 22 0 -4
BITMAP
3000
3000
0C00
0C00
0C00
0C00
3300
3300
3300
3300
C0C0
C0C0
FFC0
FFC0
C0C0
C0C0
C0C0
C0C0
0000
0000
0000
0000
ENDCHAR
STARTCHAR 193
ENCODING 193
SWIDTH 545 0
DWIDTH 12 0
BBX 12 22 0 -4
BITMAP
0300
0300
0C00
0C00
0C00
0C00
3300
3300
3300
3300
C0C0
C0C0
FFC0
FFC0
C0C0
C0C0
C0C0
C0C0
0000
0000
0000
0000
ENDCHAR
STARTCHAR 194
ENCODING 194
SWIDTH 545 0
DWIDTH 12 0
BBX 12 22 0 -4
BITMAP
0C00
0C00
3300
3300
0000
0000
0C00
0C00
3300
3300
C0C0
C0C0
FFC0
FFC0
C0C0
C0C0
C0C0
C0C0
0000
0000
0000
0000
ENDCHAR
STARTCHAR 195
ENCODING 195
SWIDTH 545 0
DWIDTH 12 0
BBX 12 22 0 -4
BITMAP
3CC0
3CC0
CF00
CF00
0C00
0C00
3300
3300
3300
3300
C0C0
C0C0
FFC0
FFC0
C0C0
C0C0
C0C0
C0C0
0000
0000
0000
0000
ENDCHAR
STARTCHAR 196
ENCODING 196
SWIDTH 545 0
DWIDTH 12 0
BBX 12 22 0 -4
BITMAP
3300
3300
0000
0000
0C00
0C00
3300
3300
3300
3300
C0C0
C0C0
FFC0
FFC0
C0C0
C0C0
C0C0
C0C0
0000
0000
0000
0000
ENDCHAR
STARTCHAR 197
ENCODING 197
SWIDTH 545 0
DWIDTH 12 0
BBX 12 22 0 -4
BITMAP
0C00
0C00
3300
3300
0C00
0C00
3300
3300
C0C0
C0C0
C0C0
C0C0
FFC0
FFC0
C0C0
C0C0
C0C0
C0C0
0000
0000
0000
0000
ENDCHAR
STARTCHAR 198
ENCODING 198
SWIDTH 545 0
DWIDTH 12 0
BBX 12 22 0 -4
BITMAP
0000
0000
0000
0000
3FC0
3FC0
CC00
CC00
CC00
CC00
FF00
FF00
CC00
CC00
CC00
CC00
CFC0
CFC0
0000
0000
0000
0000
ENDCHAR
STARTCHAR 199
ENCODING 199
SWIDTH 545 0
DWIDTH 12 0
BBX 12 22 0 -4
BITMAP
0000
0000
0000
0000
3F00
3F00
C0C0
C0C0
C000
C000
C000
C000
C000
C000
C0C0
C0C0
3F00
3F00
0C00
0C00
3000
3000
ENDCHAR
STARTCHAR 200
ENCODING 200
SWIDTH 545 0
DWIDTH 12 0
BBX 12 22 0 -4
BITMAP
3000
3000
0C00
0C00
FFC0
FFC0
C000
C000
C000
C000
FF00
FF00
C000
C000
C000
C000
FFC0
FFC0
0000
0000
0000
0000
ENDCHAR
STARTCHAR 201
ENCODING 201
SWIDTH 545 0
DWIDTH 12 0
BBX 12 22 0 -4
BITMAP
0300
0300
0C00
0C00
FFC0
FFC0
C000
C000
C000
C000
FF00
FF00
C000
C000
C000
C000
FFC0
FFC0
0000
0000
0000
0000
ENDCHAR
STARTCHAR 202
ENCODING 202
SWIDTH 545 0
DWIDTH 12 0
BBX 12 22 0 -4
BITMAP
0C00
0C00
3300
3300
FFC0
FFC0
C000
C000
C000
C000
FF00
FF00
C000
C000
C000
C000
FFC0
FFC0
0000
0000
0000
0000
ENDCHAR
STARTCHAR 203
ENCODING 203
SWIDTH 545 0
DWIDTH 12 0
BBX 12 22 0 -4
BITMAP
3300
3300
0000
0000
FFC0
FFC0
C000
C000
C000
C000
FF00
FF00
C000
C000
C000
C000
FFC0
FFC0
0000
0000
0000
0000
ENDCHAR
STARTCHAR 204
ENCODING 204
SWIDTH 545 0
DWIDTH 12 0
BBX 12 22 0 -4
BITMAP
3000
3000
0C00
0C00
FFC0
FFC0
0C00
0C00
0C00
0C00
0C00
0C00
0C00
0C00
0C00
0C00
FFC0
FFC0
0000
0000
0000
0000
ENDCHAR
STARTCHAR 205
ENCODING 205
SWIDTH 545 0
DWIDTH 12 0
BBX 12 22 0 -4
BITMAP
0300
0300
0C00
0C00
FFC0
FFC0
0C00
0C00
0C00
0C00
0C00
0C00
0C00
0C00
0C00
0C00
FFC0
FFC0
0000
0000
0000
0000
ENDCHAR
STARTCHAR 206
ENCODING 206
SWIDTH 545 0
DWIDTH 12 0
BBX 12 22 0 -4
BITMAP
0C00
0C00
3300
3300
0000
0000
FFC0
FFC0
0C00
0C00
0C00
0C00
0C00
0C00
0C00
0C00
FFC0
FFC0
0000
0000
0000
0000
ENDCHAR
STARTCHAR 207
ENCODING 207
SWIDTH 545 0
DWIDTH 12 0
BBX 12 22 0 -4
BITMAP
3300
3300
0000
0000
FFC0
FFC0
0C00
0C00
0C00
0C00
0C00
0C00
0C00
0C00
0C00
0C00
FFC0
FFC0
0000
0000
0000
0000
ENDCHAR
STARTCHAR 208
ENCODING 208
SWIDTH 545 0
DWIDTH 12 0
BBX 12 22 0 -4
BITMAP
0000
0000
0000
0000
3F00
3F00
30C0
30C0
30C0
30C0
FCC0
FCC0
30C0
30C0
30C0
30C0
3F00
3F00
0000
0000
0000
0000
ENDCHAR
STARTCHAR 209
ENCODING 209
SWIDTH 545 0
DWIDTH 12 0
BBX 12 22 0 -4
BITMAP
3CC0
3CC0
CF00
CF00
C0C0
C0C0
F0C0
F0C0
CCC0
CCC0
C3C0
C3C0
C0C0
C0C0
C0C0
C0C0
C0C0
C0C0
0000
0000
0000
0000
ENDCHAR
STARTCHAR 210
ENCODING 210
SWIDTH 545 0
DWIDTH 12 0
BBX 12 22 0 -4
BITMAP
3000
3000
0C00
0C00
3F00
3F00
C0C0
C0C0
C0C0
C0C0
C0C0
C0C0
C0C0
C0C0
C0C0
C0C0
3F00
3F00
0000
0000
0000
0000
ENDCHAR
STARTCHAR 211
ENCODING 211
SWIDTH 545 0
DWIDTH 12 0
BBX 12 22 0 -4
BITMAP
0300
0300
0C00
0C00
3F00
3F00
C0C0
C0C0
C0C0
C0C0
C0C0
C0C0
C0C0
C0C0
C0C0
C0C0
3F00
3F00
0000
0000
0000
0000
ENDCHAR
STARTCHAR 212
ENCODING 212
SWIDTH 545 0
DWIDTH 12 0
BBX 12 22 0 -4
BITMAP
0C00
0C00
3300
3300
0000
0000
3F00
3F00
C0C0
C0C0
C0C0
C0C0
C0C0
C0C0
C0C0
C0C0
3F00
3F00
0000
0000
0000
0000
ENDCHAR
STARTCHAR 213
ENCODING 213
SWIDTH 545 0
DWIDTH 12 0
BBX 12 22 0 -4
BITMAP
3CC0
3CC0
CF00
CF00
3F00
3F00
C0C0
C0C0
C0C0
C0C0
C0C0
C0C0
C0C0
C0C0
C0C0
C0C0
3F00
3F00
0000
0000
0000
0000
ENDCHAR
STARTCHAR 214
ENCODING 214
SWIDTH 545 0
DWIDTH 12 0
BBX 12 22 0 -4
BITMAP
3300
3300
0000
0000
3F00
3F00
C0C0
C0C0
C0C0
C0C0
C0C0
C0C0
C0C0
C0C0
C0C0
C0C0
3F00
3F00
0000
0000
0000
0000
ENDCHAR
STARTCHAR 215
ENCODING 215
SWIDTH 545 0
DWIDTH 12 0
BBX 12 22 0 -4
BITMAP
0000
0000
0000
0000
0000
0000
C0C0
C0C0
3300
3300
0C00
0C00
3300
3300
C0C0
C0C0
0000
0000
0000
0000
0000
0000
ENDCHAR
STARTCHAR 216
ENCODING 216
SWIDTH 545 0
DWIDTH 12 0
BBX 12 22 0 -4
BITMAP
0000
0000
0000
0000
3F00
3F00
C0C0
C0C0
C3C0
C3C0
CCC0
CCC0
F0C0
F0C0
C0C0
C0C0
3F00
3F00
0000
0000
0000
0000
ENDCHAR
STARTCHAR 217
ENCODING 217
SWIDTH 545 0
DWIDTH 12 0
BBX 12 22 0 -4
BITMAP
3000
3000
0C00
0C00
C0C0
C0C0
C0C0
C0C0
C0C0
C0C0
C0C0
C0C0
C0C0
C0C0
C0C0
C0C0
3F00
3F00
0000
0000
0000
0000
ENDCHAR
STARTCHAR 218
ENCODING 218
SWIDTH 545 0
DWIDTH 12 0
BBX 12 22 0 -4
BITMAP
0300
0300
0C00
0C00
C0C0
C0C0
C0C0
C0C0
C0C0
C0C0
C0C0
C0C0
C0C0
C0C0
C0C0
C0C0
3F00
3F00
0000
0000
0000
0000
ENDCHAR
STARTCHAR 219
ENCODING 219
SWIDTH 545 0
DWIDTH 12 0
BBX 12 22 0 -4
BITMAP
0C00
0C00
3300
3300
0000
0000
C0C0
C0C0
C0C0
C0C0
C0C0
C0C0
C0C0
C0C0
C0C0
C0C0
3F00
3F00
0000
0000
0000
0000
ENDCHAR
STARTCHAR 220
ENCODING 220
SWIDTH 545 0
DWIDTH 12 0
BBX 12 22 0 -4
BITMAP
3300
3300
0000
0000
C0C0
C0C0
C0C0
C0C0
C0C0
C0C0
C0C0
C0C0
C0C0
C0C0
C0C0
C0C0
3F00
3F00
0000
0000
0000
0000
ENDCHAR
STARTCHAR 221
ENCODING 221
SWIDTH 545 0
DWIDTH 12 0
BBX 12 22 0 -4
BITMAP
0300
0300
0C00
0C00
C0C0
C0C0
C0C0
C0C0
C0C0
C0C0
3300
3300
0C00
0C00
0C00
0C00
0C00
0C00
0000
0000
0000
0000
ENDCHAR
STARTCHAR 222
ENCODING 222
SWIDTH 545 0
DWIDTH 12 0
BBX 12 22 0 -4
BITMAP
0000
0000
0000
0000
C000
C000
FF00
FF00
C0C0
C0C0
C0C0
C0C0
FF00
FF00
C000
C000
C000
C000
0000
0000
0000
0000
ENDCHAR
STARTCHAR 223
ENCODING 223
SWIDTH 545 0
DWIDTH 12 0
BBX 12 22 0 -4
BITMAP
0000
0000
0F00
0F00
30C0
30C0
C0C0
C0C0
C300
C300
C300
C300
C0C0
C0C0
C0C0
C0C0
CF00
CF00
C000
C000
0000
0000
ENDCHAR
STARTCHAR 224
ENCODING 224
SWIDTH 545 0
DWIDTH 12 0
BBX 12 22 0 -4
BITMAP
0000
0000
0C00
0C00
0300
0300
0000
0000
3FC0
3FC0
C0C0
C0C0
C0C0
C0C0
C3C0
C3C0
3CC0
3CC0
0000
0000
0000
0000
ENDCHAR
STARTCHAR 225
ENCODING 225
SWIDTH 545 0
DWIDTH 12 0
BBX 12 22 0 -4
BITMAP
0000
0000
0300
0300
0C00
0C00
0000
0000
3FC0
3FC0
C0C0
C0C0
C0C0
C0C0
C3C0
C3C0
3CC0
3CC0
0000
0000
0000
0000
ENDCHAR
STARTCHAR 226
ENCODING 226
SWIDTH 545 0
DWIDTH 12 0
BBX 12 22 0 -4
BITMAP
0000
0000
0C00
0C00
3300
3300
0000
0000
3FC0
3FC0
C0C0
C0C0
C0C0
C0C0
C3C0
C3C0
3CC0
3CC0
0000
0000
0000
0000
ENDCHAR
STARTCHAR 227
ENCODING 227
SWIDTH 545 0
DWIDTH 12 0
BBX 12 22 0 -4
BITMAP
0000
0000
3CC0
3CC0
CF00
CF00
0000
0000
3FC0
3FC0
C0C0
C0C0
C0C0
C0C0
C3C0
C3C0
3CC0
3CC0
0000
0000
0000
0000
ENDCHAR
STARTCHAR 228
ENCODING 228
SWIDTH 545 0
DWIDTH 12 0
BBX 12 22 0 -4
BITMAP
0000
0000
0000
0000
3300
3300
0000
0000
3FC0
3FC0
C0C0
C0C0
C0C0
C0C0
C3C0
C3C0
3CC0
3CC0
0000
0000
0000
0000
ENDCHAR
STARTCHAR 229
ENCODING 229
SWIDTH 545 0
DWIDTH 12 0
BBX 12 22 0 -4
BITMAP
0000
0000
0C00
0C00
3300
3300
0C00
0C00
3FC0
3FC0
C0C0
C0C0
C0C0
C0C0
C3C0
C3C0
3CC0
3CC0
0000
0000
0000
0000
ENDCHAR
STARTCHAR 230
ENCODING 230
SWIDTH 545 0
DWIDTH 12 0
BBX 12 22 0 -4
BITMAP
0000
0000
0000
0000
0000
0000
0000
0000
3F00
3F00
CCC0
CCC0
CFC0
CFC0
CC00
CC00
3FC0
3FC0
0000
0000
0000
0000
ENDCHAR
STARTCHAR 231
ENCODING 231
SWIDTH 545 0
DWIDTH 12 0
BBX 12 22 0 -4
BITMAP
0000
0000
0000
0000
0000
0000
0000
0000
3F00
3F00
C0C0
C0C0
C000
C000
C000
C000
3FC0
3FC0
0C00
0C00
3000
3000
ENDCHAR
STARTCHAR 232
ENCODING 232
SWIDTH 545 0
DWIDTH 12 0
BBX 12 22 0 -4
BITMAP
0000
0000
3000
3000
0C00
0C00
0000
0000
3F00
3F00
C0C0
C0C0
FFC0
FFC0
C000
C000
3FC0
3FC0
0000
0000
0000
0000
ENDCHAR
STARTCHAR 233
ENCODING 233
SWIDTH 545 0
DWIDTH 12 0
BBX 12 22 0 -4
BITMAP
0000
0000
0300
0300
0C00
0C00
0000
0000
3F00
3F00
C0C0
C0C0
FFC0
FFC0
C000
C000
3FC0
3FC0
0000
0000
0000
0000
ENDCHAR
STARTCHAR 234
ENCODING 234
SWIDTH 545 0
DWIDTH 12 0
BBX 12 22 0 -4
BITMAP
0000
0000
0C00
0C00
3300
3300
0000
0000
3F00
3F00
C0C0
C0C0
FFC0
FFC0
C000
C000
3FC0
3FC0
0000
0000
0000
0000
ENDCHAR
STARTCHAR 235
ENCODING 235
SWIDTH 545 0
DWIDTH 12 0
BBX 12 22 0 -4
BITMAP
0000
0000
0000
0000
3300
3300
0000
0000
3F00
3F00
C0C0
C0C0
FFC0
FFC0
C000
C000
3FC0
3FC0
0000
0000
0000
0000
ENDCHAR
STARTCHAR 236
ENCODING 236
SWIDTH 545 0
DWIDTH 12 0
BBX 12 22 0 -4
BITMAP
0000
0000
3000
3000
0C00
0C00
0000
0000
3C00
3C00
0C00
0C00
0C00
0C00
0C00
0C00
3F00
3F00
0000
0000
0000
0000
ENDCHAR
STARTCHAR 237
ENCODING 237
SWIDTH 545 0
DWIDTH 12 0
BBX 12 22 0 -4
BITMAP
0000
0000
0300
0300
0C00
0C00
0000
0000
3C00
3C00
0C00
0C00
0C00
0C00
0C00
0C00
3F00
3F00
0000
0000
0000
0000
ENDCHAR
STARTCHAR 238
ENCODING 238
SWIDTH 545 0
DWIDTH 12 0
BBX 12 22 0 -4
BITMAP
0000
0000
0C00
0C00
3300
3300
0000
0000
3C00
3C00
0C00
0C00
0C00
0C00
0C00
0C00
3F00
3F00
0000
0000
0000
0000
ENDCHAR
STARTCHAR 239
ENCODING 239
SWIDTH 545 0
DWIDTH 12 0
BBX 12 22 0 -4
BITMAP
0000
0000
0000
0000
3300
3300
0000
0000
3C00
3C00
0C00
0C00
0C00
0C00
0C00
0C00
3F00
3F00
0000
0000
0000
0000
ENDCHAR
STARTCHAR 240
ENCODING 240
SWIDTH 545 0
DWIDTH 12 0
BBX 12 22 0 -4
BITMAP
0000
0000
3C00
3C00
3C00
3C00
0300
0300
3FC0
3FC0
C0C0
C0C0
C0C0
C0C0
C0C0
C0C0
3F00
3F00
0000
0000
0000
0000
ENDCHAR
STARTCHAR 241
ENCODING 241
SWIDTH 545 0
DWIDTH 12 0
BBX 12 22 0 -4
BITMAP
0000
0000
3CC0
3CC0
CF00
CF00
0000
0000
CF00
CF00
F0C0
F0C0
C0C0
C0C0
C0C0
C0C0
C0C0
C0C0
0000
0000
0000
0000
ENDCHAR
STARTCHAR 242
ENCODING 242
SWIDTH 545 0
DWIDTH 12 0
BBX 12 22 0 -4
BITMAP
0000
0000
3000
3000
0C00
0C00
0000
0000
3F00
3F00
C0C0
C0C0
C0C0
C0C0
C0C0
C0C0
3F00
3F00
0000
0000
0000
0000
ENDCHAR
STARTCHAR 243
ENCODING 243
SWIDTH 545 0
DWIDTH 12 0
BBX 12 22 0 -4
BITMAP
0000
0000
0300
0300
0C00
0C00
0000
0000
3F00
3F00
C0C0
C0C0
C0C0
C0C0
C0C0
C0C0
3F00
3F00
0000
0000
0000
0000
ENDCHAR
STARTCHAR 244
ENCODING 244
SWIDTH 545 0
DWIDTH 12 0
BBX 12 22 0 -4
BITMAP
0000
0000
0C00
0C00
3300
3300
0000
0000
3F00
3F00
C0C0
C0C0
C0C0
C0C0
C0C0
C0C0
3F00
3F00
0000
0000
0000
0000
ENDCHAR
STARTCHAR 245
ENCODING 245
SWIDTH 545 0
DWIDTH 12 0
BBX 12 22 0 -4
BITMAP
0000
0000
3CC0
3CC0
CF00
CF00
0000
0000
3F00
3F00
C0C0
C0C0
C0C0
C0C0
C0C0
C0C0
3F00
3F00
0000
0000
0000
0000
ENDCHAR
STARTCHAR 246
ENCODING 246
SWIDTH 545 0
DWIDTH 12 0
BBX 12 22 0 -4
BITMAP
0000
0000
0000
0000
3300
3300
0000
0000
3F00
3F00
C0C0
C0C0
C0C0
C0C0
C0C0
C0C0
3F00
3F00
0000
0000
0000
0000
ENDCHAR
STARTCHAR 247
ENCODING 247
SWIDTH 545 0
DWIDTH 12 0
BBX 12 22 0 -4
BITMAP
0000
0000
0000
0000
0000
0000
0C00
0C00
0000
0000
FFC0
FFC0
0000
0000
0C00
0C00
0000
0000
0000
0000
0000
0000
ENDCHAR
STARTCHAR 248
ENCODING 248
SWIDTH 545 0
DWIDTH 12 0
BBX 12 22 0 -4
BITMAP
0000
0000
0000
0000
0000
0000
0000
0000
3F00
3F00
C3C0
C3C0
CCC0
CCC0
F0C0
F0C0
3F00
3F00
0000
0000
0000
0000
ENDCHAR
STARTCHAR 249
ENCODING 249
SWIDTH 545 0
DWIDTH 12 0
BBX 12 22 0 -4
BITMAP
0000
0000
3000
3000
0C00
0C00
0000
0000
C0C0
C0C0
C0C0
C0C0
C0C0
C0C0
C3C0
C3C0
3CC0
3CC0
0000
0000
0000
0000
ENDCHAR
STARTCHAR 250
ENCODING 250
SWIDTH 545 0
DWIDTH 12 0
BBX 12 22 0 -4
BITMAP
0000
0000
0300
0300
0C00
0C00
0000
0000
C0C0
C0C0
C0C0
C0C0
C0C0
C0C0
C3C0
C3C0
3CC0
3CC0
0000
0000
0000
0000
ENDCHAR
STARTCHAR 251
ENCODING 251
SWIDTH 545 0
DWIDTH 12 0
BBX 12 22 0 -4
BITMAP
0000
0000
0C00
0C00
3300
3300
0000
0000
C0C0
C0C0
C0C0
C0C0
C0C0
C0C0
C3C0
C3C0
3CC0
3CC0
0000
0000
0000
0000
ENDCHAR
STARTCHAR 252
ENCODING 252
SWIDTH 545 0
DWIDTH 12 0
BBX 12 22 0 -4
BITMAP
0000
0000
0000
0000
3300
3300
0000
0000
C0C0
C0C0
C0C0
C0C0
C0C0
C0C0
C3C0
C3C0
3CC0
3CC0
0000
0000
0000
0000
ENDCHAR
STARTCHAR 253
ENCODING 253
SWIDTH 545 0
DWIDTH 12 0
BBX 12 22 0 -4
BITMAP
0000
0000
0300
0300
0C00
0C00
0000
0000
C0C0
C0C0
C0C0
C0C0
C0C0
C0C0
C0C0
C0C0
3FC0
3FC0
00C0
00C0
3F00
3F00
ENDCHAR
STARTCHAR 254
ENCODING 254
SWIDTH 545 0
DWIDTH 12 0
BBX 12 22 0 -4
BITMAP
0000
0000
0000
0000
C000
C000
C000
C000
FF00
FF00
C0C0
C0C0
C0C0
C0C0
C0C0
C0C0
FF00
FF00
C000
C000
C000
C000
ENDCHAR
STARTCHAR 255
ENCODING 255
SWIDTH 545 0
DWIDTH 12 0
BBX 12 22 0 -4
BITMAP
0000
0000
0000
0000
3300
3300
0000
0000
C0C0
C0C0
C0C0
C0C0
C0C0
C0C0
C0C0
C0C0
3FC0
3FC0
00C0
00C0
3F00
3F00
ENDCHAR
STARTCHAR U+250C
ENCODING 256
SWIDTH 545 0
DWIDTH 12 0
BBX 12 22 0 -4
BITMAP
0000
0000
0000
0000
0000
0000
0000
0000
0000
07F0
07F0
0600
0600
0600
0600
0600
0600
0600
0600
0600
0600
0600
ENDCHAR
STARTCHAR U+2514
ENCODING 257
SWIDTH 545 0
DWIDTH 12 0
BBX 12 22 0 -4
BITMAP
0600
0600
0600
0600
0600
0600
0600
0600
0600
07F0
07F0
0000
0000
0000
0000
0000
0000
0000
0000
0000
0000
0000
ENDCHAR
STARTCHAR U+253C
ENCODING 258
SWIDTH 545 0
DWIDTH 12 0
BBX 12 22 0 -4
BITMAP
0600
0600
0600
0600
0600
0600
0600
0600
0600
FFF0
FFF0
0600
0600
0600
0600
0600
0600
0600
0600
0600
0600
0600
ENDCHAR
STARTCHAR U+2500
ENCODING 259
SWIDTH 545 0
DWIDTH 12 0
BBX 12 22 0 -4
BITMAP
0000
0000
0000
0000
0000
0000
0000
0000
0000
FFF0
FFF0
0000
0000
0000
0000
0000
0000
0000
0000
0000
0000
0000
ENDCHAR
STARTCHAR U+251C
ENCODING 260
SWIDTH 545 0
DWIDTH 12 0
BBX 12 22 0 -4
BITMAP
0600
0600
0600
0600
0600
0600
0600
0600
0600
07F0
07F0
0600
0600
0600
0600
0600
0600
0600
0600
0600
0600
0600
ENDCHAR
STARTCHAR U+2524
ENCODING 261
SWIDTH 545 0
DWIDTH 12 0
BBX 12 22 0 -4
BITMAP
0600
0600
0600
0600
0600
0600
0600
0600
0600
FE00
FE00
0600
0600
0600
0600
0600
0600
0600
0600
0600
0600
0600
ENDCHAR
STARTCHAR U+2534
ENCODING 262
SWIDTH 545 0
DWIDTH 12 0
BBX 12 22 0 -4
BITMAP
0600
0600
0600
0600
0600
0600
0600
0600
0600
FFF0
FFF0
0000
0000
0000
0000
0000
0000
0000
0000
0000
0000
0000
ENDCHAR
STARTCHAR U+252C
ENCODING 263
SWIDTH 545 0
DWIDTH 12 0
BBX 12 22 0 -4
BITMAP
0000
0000
0000
0000
0000
0000
0000
0000
0000
FFF0
FFF0
0600
0600
0600
0600
0600
0600
0600
0600
0600
0600
0600
ENDCHAR
STARTCHAR U+2502
ENCODING 264
SWIDTH 545 0
DWIDTH 12 0
BBX 12 22 0 -4
BITMAP
0600
0600
0600
0600
0600
0600
0600
0600
0600
0600
0600
0600
0600
0600
0600
0600
0600
0600
0600
0600
0600
0600
ENDCHAR
ENDFONT
